<svg width="24" height="24" viewBox="0 0 24 24" fill="none" xmlns="http://www.w3.org/2000/svg">
<path fill-rule="evenodd" clip-rule="evenodd" d="M12 20C16.4183 20 20 16.4183 20 12C20 7.58176 16.4183 4.00001 12 4.00001C7.58171 4.00001 4.00001 7.58176 4.00001 12C4.00001 16.4183 7.58171 20 12 20ZM12 22.0513C17.5512 22.0513 22.0513 17.5512 22.0513 12C22.0513 6.44884 17.5512 1.94873 12 1.94873C6.44884 1.94873 1.94873 6.44884 1.94873 12C1.94873 17.5512 6.44884 22.0513 12 22.0513Z" fill="black"/>
<path fill-rule="evenodd" clip-rule="evenodd" d="M11.7266 16.0131V8.02393H14.201C14.8838 8.02393 15.5088 8.17597 16.0608 8.49416C16.614 8.81322 17.0402 9.26882 17.335 9.84785C17.6314 10.4239 17.7744 11.0728 17.7779 11.7816V11.7829V12.229C17.7779 12.9522 17.6375 13.6105 17.3397 14.1892C17.0439 14.7703 16.6127 15.225 16.0518 15.5404C15.4974 15.8539 14.8641 16.006 14.1681 16.0131H14.1654H11.7266ZM13.6685 14.2366H14.1199C14.7116 14.2366 15.1086 14.0574 15.3832 13.7486L15.3839 13.7478L15.3846 13.747C15.6676 13.4315 15.8454 12.9442 15.8454 12.2098V11.8033C15.8454 11.0885 15.6773 10.6088 15.4095 10.2945L15.4082 10.293L15.4069 10.2915C15.1527 9.98842 14.7827 9.81092 14.2223 9.80519H13.6685V14.2366Z" fill="black"/>
<path d="M7.58984 16.0479H9.61039V7.96582H7.58984V16.0479Z" fill="black"/>
</svg>
